<?xml version="1.0" encoding="utf-8"?>
<!-- Generator: Adobe Illustrator 24.3.0, SVG Export Plug-In . SVG Version: 6.00 Build 0)  -->
<svg version="1.1" id="Layer_1" xmlns="http://www.w3.org/2000/svg" xmlns:xlink="http://www.w3.org/1999/xlink" x="0px" y="0px"
	 viewBox="0 0 100.1 100.2" style="enable-background:new 0 0 100.1 100.2;" xml:space="preserve">
<style type="text/css">
	.st0{fill:none;}
	.st1{fill:#2B2422;}
	.st2{fill:#FFFFFF;}
	.st3{fill-rule:evenodd;clip-rule:evenodd;fill:#1A0832;}
	.st4{fill:url(#SVGID_2_);}
	.st5{fill:none;stroke:#000000;stroke-width:1.6149;stroke-miterlimit:22.9256;}
	.st6{fill-rule:evenodd;clip-rule:evenodd;fill:#FFFFFF;}
	.st7{fill:#1A0832;}
</style>
<pattern  y="100.2" width="223.1" height="223.1" patternUnits="userSpaceOnUse" id="SVGID_1_" viewBox="0 -223.1 223.1 223.1" style="overflow:visible;">
	<g>
		<rect y="-223.1" class="st0" width="223.1" height="223.1"/>
		<g>
			<rect y="-223.1" class="st0" width="223.1" height="223.1"/>
			<polygon class="st1" points="91.4,-71 76.6,-56.2 56.2,-56.2 55.5,-56.2 55.5,-77.3 70.3,-92.1 70.6,-91.8 			"/>
			
				<rect x="103.9" y="-119" transform="matrix(0.7071 -0.7071 0.7071 0.7071 111.4652 46.0495)" class="st1" width="14.9" height="14.9"/>
			<path class="st1" d="M110.9-68l43.6-43.6L111-155.2l-43.6,43.6L110.9-68z M110.9-84.5l-27-27l27.1-27.2l27,27L110.9-84.5z"/>
			<polygon class="st1" points="130.3,-152.1 145.1,-166.9 145.8,-166.9 166.2,-166.9 166.2,-145.8 151.8,-131.4 151.4,-131 			"/>
			<polygon class="st1" points="178.7,-18.4 178.7,-44.4 204.7,-44.4 223.1,-62.8 223.1,-62.8 223.1,-31.7 223.1,-31.7 213.8,-22.4 
				200.7,-22.4 200.7,-9.3 191.4,0 160.3,0 			"/>
			<polygon class="st1" points="132.9,-196.4 133.1,-196.4 151.4,-214.6 151.5,-214.7 151.5,-214.7 166.4,-199.8 166.4,-178.7 
				166.4,-178.7 166.4,-178.7 166.3,-178.7 166.2,-178.7 140.4,-178.7 122.2,-160.5 122.2,-160.5 122.2,-160.5 122.1,-160.6 
				122.1,-160.6 122.1,-160.6 111.3,-171.4 100.4,-160.5 82.2,-178.7 56.2,-178.7 56.2,-178.7 56.2,-178.7 56.2,-199.8 71.1,-214.7 
				71.2,-214.6 71.3,-214.7 71.3,-214.7 71.3,-214.7 89.7,-196.4 99.7,-196.4 99.7,-196.4 99.7,-196.4 107.1,-196.4 107.1,-196.4 
							"/>
			<path class="st1" d="M223.1-210.5L223.1-210.5c-3.4,0-6.5-1.3-8.9-3.7c-2.4-2.4-3.7-5.5-3.7-8.9l0,0h12.6L223.1-210.5
				L223.1-210.5z"/>
			<polygon class="st1" points="62.8,-122.7 51.7,-111.6 62.8,-100.5 44.6,-82.2 44.6,-56.2 44.4,-56.2 23.5,-56.2 8.6,-71.2 
				27,-89.5 27,-107.6 27,-107.6 27,-107.6 27,-107.6 27,-133.6 27,-133.6 8.6,-152 8.6,-152 8.6,-152 23.5,-166.9 23.5,-166.9 
				44.6,-166.9 44.6,-161.7 44.6,-140.9 			"/>
			<polygon class="st1" points="98.8,-15 107.1,-15 107.1,-15 107.1,-15 107.1,-15 128,-15 128,-14.9 142.9,0 79.7,0 94.6,-15 			
				"/>
			<path class="st1" d="M223.1-12.6L223.1-12.6V0h-12.6c0-3.4,1.3-6.5,3.7-8.9C216.5-11.3,219.7-12.6,223.1-12.6z"/>
			<polygon class="st1" points="56.2,-166.9 76.6,-166.9 91.4,-152.1 70.6,-131.4 70.3,-131 55.5,-145.8 55.5,-166.9 			"/>
			<polygon class="st1" points="44.4,-204.7 44.4,-178.7 18.4,-178.7 0,-160.4 0,-160.4 0,-191.4 0,-191.4 9.3,-200.7 22.4,-200.7 
				22.4,-213.8 31.6,-223.1 31.6,-223.1 62.7,-223.1 62.7,-223.1 			"/>
			<polygon class="st1" points="166.2,-56.2 145.8,-56.2 145.1,-56.2 130.3,-71 151.4,-92.1 151.8,-91.8 166.2,-77.3 			"/>
			<polygon class="st1" points="191.4,-223.1 200.7,-213.8 200.7,-200.7 213.8,-200.7 223.1,-191.4 223.1,-191.4 223.1,-160.4 
				223.1,-160.3 204.7,-178.7 178.7,-178.7 178.7,-204.7 160.3,-223.1 160.3,-223.1 			"/>
			<polygon class="st1" points="178.9,-166.9 178.9,-166.9 178.9,-166.9 200,-166.9 214.9,-152 214.9,-152 214.9,-152 196.6,-133.6 
				196.5,-133.6 196.5,-115.5 196.5,-115.5 196.5,-113.3 196.5,-107.6 196.5,-107.6 196.5,-92.3 196.5,-89.8 214.9,-71.4 200,-56.5 
				199.8,-56.5 178.9,-56.5 178.9,-80.1 178.9,-82.5 160.7,-100.8 171.6,-111.7 160.7,-122.7 160.7,-122.7 160.7,-122.7 
				178.9,-140.9 			"/>
			<polygon class="st1" points="142.9,-223.1 128,-208.2 121,-208.2 107.1,-208.2 107.1,-208.2 103.6,-208.2 94.6,-208.2 
				79.7,-223.1 79.7,-223.1 79.7,-223.1 142.9,-223.1 			"/>
			<polygon class="st1" points="222.7,-143.1 223.1,-142.7 223.1,-80.4 222.7,-80 222.4,-79.7 207.5,-94.6 207.5,-107.6 
				207.5,-107.6 207.5,-113.6 207.5,-128.5 222.4,-143.4 			"/>
			<polygon class="st1" points="22.4,-9.3 22.4,-22.4 9.3,-22.4 0,-31.7 0,-31.7 0,-62.8 0,-62.8 18.4,-44.4 44.4,-44.4 44.4,-18.4 
				62.7,0 31.6,0 			"/>
			<polygon class="st1" points="166.4,-44.4 166.4,-44.4 166.4,-23.3 151.5,-8.4 151.5,-8.4 151.5,-8.4 151.4,-8.5 133.1,-26.8 
				120.1,-26.8 115.5,-26.8 115.5,-26.8 89.7,-26.8 71.3,-8.4 71.3,-8.4 71.2,-8.5 71.1,-8.4 69.2,-10.3 56.2,-23.3 56.2,-44.4 
				56.2,-44.4 56.2,-44.4 56.4,-44.4 56.4,-44.4 56.4,-44.4 56.4,-44.4 82.2,-44.4 82.2,-44.4 100.4,-62.6 100.4,-62.6 100.4,-62.6 
				111.3,-51.8 122.1,-62.5 122.2,-62.6 122.2,-62.6 122.2,-62.6 140.4,-44.4 141.5,-44.4 142.9,-44.4 159.4,-44.4 165,-44.4 			"/>
			<path class="st1" d="M0-12.6L0-12.6c3.4,0,6.5,1.3,8.9,3.7s3.7,5.5,3.7,8.9H0V-12.6z"/>
			<path class="st1" d="M0-210.5L0-210.5v-12.6h12.6l0,0c0,3.4-1.3,6.5-3.7,8.9C6.5-211.8,3.4-210.5,0-210.5z"/>
			<polygon class="st1" points="14.2,-115.5 14.2,-115.5 14.2,-115.5 14.2,-94.6 0,-80.4 0,-142.7 14.2,-128.5 			"/>
		</g>
	</g>
</pattern>
<ellipse class="st2" cx="50" cy="50.1" rx="47.5" ry="47.5"/>
<g id="Circle_12_">
	<g>
		<path class="st3" d="M83.2,17.1C74.9,8.4,63.2,3,50.3,3C39,3,28.7,7.1,20.7,13.9C11.5,21.1,5.2,31.7,3.6,43.8
			c-0.5,2.6-0.7,5.2-0.7,8c0,25.1,20.3,45.5,45.4,45.5c8.3,0,16-2.2,22.7-6.1c15.5-7.3,26.2-23,26.2-41.2
			C97.2,37,91.8,25.4,83.2,17.1z M94.9,48.4c0,5.9-1.1,11.5-3.2,16.6c0.7-2.3,1.2-4.7,1.6-7.2c0.5-2.6,0.7-5.3,0.7-8
			C94,27.5,77.9,8.9,56.7,5c6.8,0.7,13.1,3,18.6,6.4C87.1,19.4,94.9,33,94.9,48.4z M77.7,83.7c-7.6,5.9-17.1,9.4-27.4,9.4
			c-15.4,0-29-7.8-37-19.7c-4.2-6.9-6.6-14.9-6.6-23.5c0-16.7,9.1-31.3,22.5-39.1C35,8.1,41.5,6.6,48.3,6.6
			c23.4,0,42.6,17.8,44.9,40.6c0,0.9,0.1,1.7,0.1,2.6C93.3,63.4,87.2,75.5,77.7,83.7z M91.6,64.4c-0.4,1.3-0.8,2.6-1.3,3.8
			c-0.6,1.2-1.2,2.4-1.9,3.5C89.7,69.4,90.8,67,91.6,64.4z M63.9,91.8c-4.8,1.7-9.9,2.7-15.3,2.7c-2.4,0-4.7-0.2-7-0.5
			C35,92.5,29,89.5,23.9,85.5c7.4,5.3,16.5,8.5,26.4,8.5C55,93.9,59.6,93.2,63.9,91.8z M32.3,9.2c4.2-2,8.8-3.4,13.6-4
			c0.9-0.1,1.8-0.1,2.7-0.1c21.3,0,39.2,15,43.6,35C87.1,20.6,69.4,6.3,48.3,6.3C42.7,6.3,37.3,7.3,32.3,9.2z M50.3,3.7
			c6.9,0,13.5,1.6,19.4,4.4c-5.3-2.3-11.1-3.6-17.2-3.6c-1.3-0.1-2.5-0.2-3.8-0.2C43.9,4.3,39.3,5,35,6.4
			C39.8,4.7,44.9,3.7,50.3,3.7z M21.2,14.5C27,10,33.9,6.9,41.5,5.6c-4.4,1-8.6,2.7-12.4,4.9c-5,2.3-9.5,5.6-13.3,9.5
			C17.4,18.1,19.2,16.2,21.2,14.5z M26.1,12.4C14.2,20.6,6.4,34.4,6.4,49.9c0,6.3,1.3,12.3,3.6,17.8c-2.8-5.8-4.3-12.4-4.3-19.3
			c0-9.5,3-18.3,8-25.5C17.1,18.7,21.4,15.1,26.1,12.4z M10.5,26.5c-0.1,0.2-0.2,0.4-0.3,0.5c-0.1,0.2-0.2,0.4-0.3,0.5
			C10.1,27.2,10.3,26.9,10.5,26.5z M6.9,33.9c0.5-1.3,1.2-2.5,1.8-3.7C6.2,35.8,4.9,42,4.9,48.4c0,13,5.4,24.7,14.1,32.9
			c5.1,5.3,11.4,9.4,18.5,11.7C18.2,88.1,4,70.6,4,49.8C4,44.2,5,38.9,6.9,33.9z M48.3,96.9c-24.9,0-45.1-20.2-45.1-45.2
			c0-0.3,0-0.7,0-1C3.7,75.2,23.5,94.9,48,95.3c1.3,0.1,2.5,0.2,3.8,0.2c5.6,0,11-1,16-2.9C61.9,95.3,55.3,96.9,48.3,96.9z
			 M70.9,90.9C65.3,93.5,59,95,52.4,95.1c9.8-0.8,18.7-4.7,25.7-10.8c3.1-2.4,5.8-5.2,8.2-8.2C82.4,82.2,77.1,87.3,70.9,90.9z
			 M74,89.3c6-4.1,10.9-9.6,14.4-16.1c4.6-7.1,7.3-15.6,7.3-24.8c0-9.8-3.1-18.9-8.4-26.4c6,7.7,9.6,17.4,9.6,27.9
			C96.9,66.8,87.6,81.5,74,89.3z"/>
	</g>
</g>
<pattern  id="SVGID_2_" xlink:href="#SVGID_1_" patternTransform="matrix(1 0 0 -1 197.3115 -16543.8008)">
</pattern>
<circle class="st4" cx="1501.1" cy="-301.4" r="23.5"/>
<path class="st5" d="M134.5,33c0.4-0.2,0.4-0.2,0.8-0.6c0.1-0.1,0.5-0.6,0.6-0.7c0.3-0.7,0.4-1.2,1.1-1.5c0.3-0.1,1.6-0.6,1.7-0.6
	c0.2-0.2,1.3-0.9,1.6-0.9c0.1,0,0.9,1,1.2,1.3l1.1-1l-1.1-1.4c-0.3,0.1-1.6,1-2,1.3c-0.2,0.1-2.2,0.9-2.4,0.8c-0.1,0-0.1,0-0.3-0.1
	c0.3-0.5,0.4-0.9,0.8-1.5c0.3-0.4,0.6-0.8,1-1.2c0.6-0.5,1.9-1.1,2.9-1.2c2.7-0.2,4.8,0.1,5.1-3.2c0.1-0.8-0.4-1.1-0.9-1.5
	c-0.3-0.2-1.2-0.9-1.5-1c-0.7-0.1-1.6,0.3-2.2,0.3l0,0.1c0.7,0.2,3.5,2,3.5,2.6c-0.1,0.5-1.4,0.6-1.9,0.7c-0.2,0-2.2,0.3-2.2,0.3
	c-0.9,0.5-1.8,0.4-2.7,1.2c-0.6,0.6-1.4,1.6-1.7,2.5c-0.2,0.5-0.4,1.1-0.6,1.6c-0.2,0.6-0.7,0.6-1.2,0.8c-0.7,0.2-1.9,1.1-2,2.1
	c0,0.1,0.1,0.4,0.2,0.5c0.5-0.8,0.3-0.7,1-1.4c0.2-0.2,1.2-0.9,1.4-0.8c0,0,0.1,0.1,0.2,0.1c-0.1,0.5-0.4,0.9-0.6,1.3
	c-0.1,0.2-0.2,0.4-0.4,0.5C134.8,32.6,134.4,33,134.5,33L134.5,33z M147.1,26c0.7,0.1,2.8,0.1,3.3-0.1c0.5-0.1,1-0.1,1.4-0.3
	c0.5-0.2,0.8-0.4,1.3-0.5c1.5-0.6,3.1-2,4-3.4c0.9-1.4,1.7-3.7,2.1-5.6c0.3-1.2,0.4-2.1,0.8-3.2c0.1-0.3,0.6-0.9,0.8-1.1
	c0.2-0.2,1-0.7,1-0.7c-1-0.1-1.8,0.2-2.4,0.6c-0.2,0.2-0.6,0.6-0.8,0.8c-0.2,0.4-0.3,0.8-0.6,1.1c0,0.3-0.4,1.6-0.5,1.9
	c-0.2,0.5-0.4,1.3-0.6,1.8c-0.2,0.8-0.8,3.2-1.3,3.4l0,0.3c-0.2,0.1-0.6,0.8-0.8,1c-0.3,0.3-0.6,0.5-0.9,0.9c-0.3,0.3-1.6,1.2-2,1.4
	c-0.8,0.3-1.5,0.7-2.3,0.9c-0.4,0.1-0.9,0.2-1.3,0.3C148.1,25.7,147.2,25.7,147.1,26z M150.7,23.5c0.2,0,0.3-0.7,0.4-1l0-0.3
	c0-0.1,0-0.1-0.1-0.3l-1.5-0.3c-0.1,0.2-0.3,1.1-0.5,1.1c-0.6-0.1-0.9-0.4-1.3-0.4c-0.2,0-0.3,0.7-0.4,0.9l-0.1,0.5
	c0,0.3,1.2,0.5,1.6,0.6l0.3-1l0.2-0.1C149.7,23.2,150.4,23.4,150.7,23.5z M135.2,12.2l0.4-1c0.5-0.3,0.8-0.8,1.6-0.7l0.3,0
	c1.5,0.2,3.4,3.7,4.2,4.8c0.6,0.7,1.4,1.8,1.8,2.6c0.5,0.8,1.3,1.8,2.6,2l0.2,0c1.5,0.2,2.9-1,3.5-2c0.5-0.9,1.5-3.1,1.4-4.5l-0.1,0
	c-0.1,0.1-0.9,0.8-1.1,1c-0.2,0.2-0.4,0.3-0.5,0.5c-0.2,0.2-0.3,0.4-0.5,0.6c-0.1,1.2-1.2,3.7-2.1,3.6l-0.3,0
	c-0.8-0.1-1.8-1.7-2.2-2.3c-0.6-0.8-1.3-1.8-1.8-2.6c-0.6-0.9-1.2-1.7-1.8-2.7c-0.4-0.7-1.7-1.9-2.6-2l-0.3,0
	c-0.7-0.1-1.6,0.4-2,0.8C135.3,10.9,135.3,11,135.2,12.2z M150.7,18.3l-1.7,2c0.9-0.1,1.6-0.6,2.3-1c0.2-0.1,0.8-0.5,0.9-0.8
	c0.2-0.3,0.5-0.8,0.7-1.1l0.3-0.7c0.1-0.6,0.3-0.8,0.4-1.3c0.2-0.6,0.2-0.8,0.3-1.4c0.1-0.5,0.2-0.9,0.3-1.3
	c0.1-0.4,0.4-0.9,0.4-1.2c0.3-0.4,0.5-0.9,0.9-1.3c0.3-0.4,0.7-0.7,1.1-0.9c0.5-0.3,0.9-0.4,1.6-0.4c1-0.1,0.9,0.2,1.8,0.3l0.2,0.2
	l0.3,0c-0.2-0.4-1.8-1.2-2.4-1.3l-0.3,0c-0.3,0-1.3,0.2-1.6,0.3c-0.5,0.2-0.9,0.4-1.3,0.8c-0.8,0.6-1.4,1.5-1.8,2.6
	c-0.1,0.3-0.3,0.5-0.4,0.7c-0.1,0.3-0.1,0.6-0.3,0.9c0,0-0.5,1.7-0.5,1.7c-0.1,0.6-0.3,1.2-0.5,1.7C151.3,17.2,150.8,18,150.7,18.3z
	 M157.3,10.4c0,0.3,0.9,1.2,1.1,1.3c0.2-0.1,1-0.7,1-0.9c0-0.2-0.9-1.2-1-1.4C158.2,9.5,157.3,10.2,157.3,10.4z"/>
<path class="st6" d="M134.2,32.8c0.4-0.2,0.4-0.2,0.8-0.6c0.1-0.1,0.5-0.6,0.6-0.7c0.3-0.7,0.4-1.2,1.1-1.5c0.3-0.1,1.6-0.6,1.7-0.6
	c0.2-0.2,1.3-0.9,1.6-0.9c0.1,0,0.9,1,1.2,1.3l1.1-1l-1.1-1.4c-0.3,0.1-1.6,1-2,1.3c-0.2,0.1-2.2,0.9-2.4,0.8c-0.1,0-0.1,0-0.3-0.1
	c0.3-0.5,0.4-0.9,0.8-1.5c0.3-0.4,0.6-0.8,1-1.2c0.6-0.5,1.9-1.1,2.9-1.2c2.7-0.2,4.8,0.1,5.1-3.2c0.1-0.8-0.4-1.1-0.9-1.5
	c-0.3-0.2-1.2-0.9-1.5-1c-0.7-0.1-1.6,0.3-2.2,0.3l0,0.1c0.7,0.2,3.5,2,3.5,2.6c-0.1,0.5-1.4,0.6-1.9,0.7c-0.2,0-2.2,0.3-2.2,0.3
	c-0.9,0.5-1.8,0.4-2.7,1.2c-0.6,0.6-1.4,1.6-1.7,2.5c-0.2,0.5-0.4,1.1-0.6,1.6c-0.2,0.6-0.7,0.6-1.2,0.8c-0.7,0.2-1.9,1.1-2,2.1
	c0,0.1,0.1,0.4,0.2,0.5c0.5-0.8,0.3-0.7,1-1.4c0.2-0.2,1.2-0.9,1.4-0.8c0,0,0.1,0.1,0.2,0.1c-0.1,0.5-0.4,0.9-0.6,1.3
	c-0.1,0.2-0.2,0.4-0.4,0.5C134.6,32.4,134.2,32.7,134.2,32.8L134.2,32.8z M146.9,25.8c0.7,0.1,2.8,0.1,3.3-0.1
	c0.5-0.1,1-0.1,1.4-0.3c0.5-0.2,0.8-0.4,1.3-0.5c1.5-0.6,3.1-2,4-3.4c0.9-1.4,1.7-3.7,2.1-5.6c0.3-1.2,0.4-2.1,0.8-3.2
	c0.1-0.3,0.6-0.9,0.8-1.1c0.2-0.2,1-0.7,1-0.7c-1-0.1-1.8,0.2-2.4,0.6c-0.2,0.2-0.6,0.6-0.8,0.8c-0.2,0.4-0.3,0.8-0.6,1.1
	c0,0.3-0.4,1.6-0.5,1.9c-0.2,0.5-0.4,1.3-0.6,1.8c-0.2,0.8-0.8,3.2-1.3,3.4l0,0.3c-0.2,0.1-0.6,0.8-0.8,1c-0.3,0.3-0.6,0.5-0.9,0.9
	c-0.3,0.3-1.6,1.2-2,1.4c-0.8,0.3-1.5,0.7-2.3,0.9c-0.4,0.1-0.9,0.2-1.3,0.3C147.9,25.5,147,25.5,146.9,25.8z M150.5,23.3
	c0.2,0,0.3-0.7,0.4-1l0-0.3c0-0.1,0-0.1-0.1-0.3l-1.5-0.3c-0.1,0.2-0.3,1.1-0.5,1.1c-0.6-0.1-0.9-0.4-1.3-0.4
	c-0.2,0-0.3,0.7-0.4,0.9l-0.1,0.5c0,0.3,1.2,0.5,1.6,0.6l0.3-1l0.2-0.1C149.5,23,150.2,23.2,150.5,23.3z M135,12l0.4-1
	c0.5-0.3,0.8-0.8,1.6-0.7l0.3,0c1.5,0.2,3.4,3.7,4.2,4.8c0.6,0.7,1.4,1.8,1.8,2.6c0.5,0.8,1.3,1.8,2.6,2l0.2,0c1.5,0.2,2.9-1,3.5-2
	c0.5-0.9,1.5-3.1,1.4-4.5l-0.1,0c-0.1,0.1-0.9,0.8-1.1,1c-0.2,0.2-0.4,0.3-0.5,0.5c-0.2,0.2-0.3,0.4-0.5,0.6
	c-0.1,1.2-1.2,3.7-2.1,3.6l-0.3,0c-0.8-0.1-1.8-1.7-2.2-2.3c-0.6-0.8-1.3-1.8-1.8-2.6c-0.6-0.9-1.2-1.7-1.8-2.7
	c-0.4-0.7-1.7-1.9-2.6-2l-0.3,0c-0.7-0.1-1.6,0.4-2,0.8C135.1,10.7,135.1,10.7,135,12z M150.5,18.1l-1.7,2c0.9-0.1,1.6-0.6,2.3-1
	c0.2-0.1,0.8-0.5,0.9-0.8c0.2-0.3,0.5-0.8,0.7-1.1l0.3-0.7c0.1-0.6,0.3-0.8,0.4-1.3c0.2-0.6,0.2-0.8,0.3-1.4
	c0.1-0.5,0.2-0.9,0.3-1.3c0.1-0.4,0.4-0.9,0.4-1.2c0.3-0.4,0.5-0.9,0.9-1.3c0.3-0.4,0.7-0.7,1.1-0.9c0.5-0.3,0.9-0.4,1.6-0.4
	c1-0.1,0.9,0.2,1.8,0.3l0.2,0.2l0.3,0c-0.2-0.4-1.8-1.2-2.4-1.3l-0.3,0c-0.3,0-1.3,0.2-1.6,0.3c-0.5,0.2-0.9,0.4-1.3,0.8
	c-0.8,0.6-1.4,1.5-1.8,2.6c-0.1,0.3-0.3,0.5-0.4,0.7c-0.1,0.3-0.1,0.6-0.3,0.9c0,0-0.5,1.7-0.5,1.7c-0.1,0.6-0.3,1.2-0.5,1.7
	C151.1,17,150.6,17.8,150.5,18.1z M157.1,10.1c0,0.3,0.9,1.2,1.1,1.3c0.2-0.1,1-0.7,1-0.9c0-0.2-0.9-1.2-1-1.4
	C158,9.3,157.1,9.9,157.1,10.1z"/>
<g>
	<ellipse class="st7" cx="50" cy="50.1" rx="41.1" ry="41.1"/>
	<g>
		<g>
			<g>
				<path class="st2" d="M24.2,73.9l6.9-0.6L31,76.6l-13.2,1.1l8.3-14l-6.5,0.5l0.1-3.3l12.7-1.1L24.2,73.9z"/>
				<path class="st2" d="M36.7,59.7L36,76.2l-3.8,0.3L32.8,60L36.7,59.7z"/>
				<path class="st2" d="M43.4,59.1c1.6-0.1,3.2-0.1,4.5,1.1c0.6,0.6,1.3,1.6,1.5,3.3c0.1,1.6-0.3,2.8-1.1,3.7
					c-0.7,0.7-1.6,1.3-2.5,1.5l4.7,6.3l-4.2,0.2l-4.4-6.1l-0.2,6.5L37.8,76l0.7-16.5L43.4,59.1z M41.8,66.6l1,0
					c0.6-0.1,1.5-0.2,2.2-0.8s0.7-1.3,0.7-2c-0.1-0.5-0.2-1.2-1-1.5c-0.5-0.2-1.2-0.3-2.1-0.2L42,62.1L41.8,66.6z"/>
				<path class="st2" d="M54,66.9l-5.6-8.3l4.3-0.3l3.1,4.8l3.5-5.3l4.7-0.4l-6.2,9.3l-0.3,7.7l-3.8,0.4L54,66.9z"/>
				<path class="st2" d="M70.9,70l-6.1,0.5l-1.3,3.2l-4,0.4L66.7,57l3.5-0.3l5.7,16.1L72,73.2L70.9,70z M70,67.2l-1.7-5.6l-2.3,6
					L70,67.2z"/>
				<path class="st2" d="M76.2,56.3l5.2-0.4c1.1-0.1,2.5-0.1,3.7,0.9c0.6,0.5,1.2,1.4,1.3,2.7c0.1,1.1-0.1,1.9-0.6,2.6
					c-0.5,0.8-1.1,1.2-1.6,1.4c0.8,0.2,1.4,0.4,1.9,0.9c0.8,0.7,1.2,1.4,1.3,2.5c0.1,1.7-0.4,2.9-1,3.6c-1.1,1.4-3.1,1.8-4.8,2
					l-6,0.6L76.2,56.3z M79.6,69.5l1.4-0.1c0.7-0.1,1.8-0.2,2.4-0.8c0.2-0.2,0.6-0.7,0.4-1.7c0-0.3-0.2-0.9-0.6-1.2
					c-0.6-0.5-1.8-0.4-2.1-0.3l-1.4,0L79.6,69.5z M79.8,62.7l0.7-0.1c0.6-0.1,1.5-0.2,2.1-0.8c0.3-0.4,0.5-1,0.4-1.6
					c-0.1-0.6-0.4-1-0.7-1.2c-0.5-0.3-1.1-0.3-1.7-0.2L80,58.9L79.8,62.7z"/>
			</g>
		</g>
		<g>
			<path class="st2" d="M23,21.6l0.6,0c3.2,0.1,7.7,7,9.8,9.1c1.3,1.3,3.3,3.5,4.4,5c1.2,1.7,3.2,3.6,5.9,3.6l0.4,0
				c3.1,0.1,5.8-2.8,6.8-5c0.9-1.9,2.6-6.8,2-9.7l-0.3,0c-0.1,0.3-1.6,1.8-2,2.3c-0.3,0.4-0.7,0.7-1,1.1c-0.3,0.5-0.5,0.9-0.8,1.4
				c-0.1,2.6-1.7,7.9-3.7,7.9l-0.5,0c-1.7,0-4.1-3.2-5-4.3c-1.3-1.5-3.2-3.6-4.3-5.2c-1.4-1.8-2.8-3.3-4.2-5.3
				c-0.9-1.3-3.9-3.6-5.9-3.6l-0.7,0c-1.6,0-3.2,1.1-3.9,2.1c-1.4,1.9-1.2,2-1.3,4.6l0.7-2.2C20.8,22.7,21.3,21.6,23,21.6z"/>
			<path class="st2" d="M64.9,17.4c0,0.6,2.1,2.2,2.6,2.5c0.4-0.2,2-1.6,2-2c0-0.5-2-2.4-2.4-2.7C66.6,15.4,64.9,16.9,64.9,17.4z"/>
			<path class="st2" d="M49.4,39.8c1.8-0.4,3.2-1.6,4.5-2.6c0.5-0.3,1.5-1.3,1.8-1.8c0.4-0.7,1-1.8,1.3-2.4l0.5-1.5
				c0-1.4,0.4-1.8,0.6-2.8c0.2-1.2,0.2-1.8,0.4-2.9c0.2-1,0.2-1.9,0.5-2.9c0.2-0.9,0.6-1.9,0.7-2.7c0.6-0.8,1-1.9,1.6-2.9
				c0.6-0.9,1.3-1.5,2.2-2.2c1-0.7,1.7-1,3.2-1.2c2.1-0.3,2,0.2,3.8,0.2l0.4,0.3l0.6,0c-0.6-0.8-3.9-2.1-5.3-2.2l-0.7,0
				c-0.7,0-2.8,0.7-3.3,1c-1,0.5-1.8,1.1-2.5,1.8c-1.5,1.4-2.6,3.3-3.2,5.7c-0.2,0.7-0.4,1-0.6,1.6c-0.2,0.7-0.2,1.3-0.4,1.9
				c0,0.1-0.7,3.6-0.7,3.7c-0.2,1.3-0.5,2.5-0.8,3.7c-0.3,0.9-1.2,2.8-1.2,3.4L49.4,39.8z"/>
			<path class="st2" d="M69.6,20c-0.4,0.4-1.2,1.4-1.4,1.9c-0.4,0.8-0.5,1.8-1,2.4c0,0.7-0.5,3.5-0.7,4c-0.4,1-0.6,2.7-0.8,3.9
				c-0.2,1-0.6,3.3-1,5.1c-0.1,0.4-0.2,0.7-0.3,1.1c-0.2,0.6-0.5,1.1-0.7,1.7c0,0,0,0,0,0l0,0.2c-0.1,0-0.1,0.1-0.2,0.1
				c0,0,0,0.1-0.1,0.1c-0.1,0.1-0.1,0.2-0.2,0.3c-0.1,0.2-0.2,0.4-0.3,0.5c-0.1,0.1-0.1,0.2-0.2,0.3c-0.2,0.4-0.5,0.8-0.8,1.1
				c-0.4,0.6-1,1.1-1.4,1.7c-0.6,0.8-3.1,2.9-3.8,3.3c-1.5,0.9-3,1.7-4.7,2.4c-0.8,0.3-1.8,0.6-2.7,0.8c-0.7,0.2-2.5,0.2-2.5,1
				c1.5,0,5.8-0.3,6.8-0.8c0.9-0.4,2.2-0.5,3-0.9c1-0.5,1.7-0.9,2.5-1.3c3-1.4,6-4.8,7.6-7.8c1.6-3,2.8-8,3.4-12.2
				c0.3-2.7,0.4-4.4,1-6.8c0.2-0.7,1-2,1.4-2.4c0.4-0.4,1.9-1.6,2-1.7C72.4,18.2,70.7,19.1,69.6,20z"/>
			<path class="st2" d="M42.6,42.2c-0.6-0.4-2.6-1.7-3.4-1.7c-1.5,0-3.4,0.9-4.6,1.1l0,0.3c1.4,0.4,7.8,3.5,7.7,4.7
				c0,1-2.8,1.5-3.8,1.8c-0.5,0.1-4.5,1.1-4.5,1.1c-1.8,1.2-3.8,1.2-5.4,3.1c-1.2,1.4-2.6,3.6-3,5.5c-0.2,1.1-0.6,2.3-0.8,3.3
				c0.3-0.2,0.7-0.4,1.1-0.5c0.3-0.7,0.5-1.5,1-2.3c0.6-1,1.1-1.8,1.9-2.6c1.2-1.2,3.8-2.8,5.8-3.1c5.6-1,10-0.8,10.1-7.7
				C44.8,43.5,43.7,42.9,42.6,42.2z"/>
			<path class="st2" d="M50,47.9l0.5-2.2l0.5-0.3c0.5,0.2,2,0.6,2.7,0.6c0.5,0,0.6-1.6,0.6-2.2l0-0.5c0-0.3-0.1-0.3-0.3-0.6
				l-3.2-0.4c-0.1,0.5-0.4,2.4-0.9,2.4c-1.2,0-1.9-0.6-2.9-0.6c-0.3,0-0.6,1.5-0.6,1.9l0,1C46.5,47.7,49.2,47.9,50,47.9z"/>
		</g>
		<g>
			<path class="st2" d="M30.9,78.9L29.4,79l0,0.9l1.5-0.1l0,0.9l-1.5,0.1l0,1l1.5-0.1l0,0.9l-2.6,0.2l0.2-4.7L31,78L30.9,78.9z"/>
			<path class="st2" d="M32.5,80L31.2,78l1.3-0.1l0.7,1.3l0.8-1.4l1.3-0.1L33.7,80l1.6,2.3l-1.3,0.1l-1-1.5L32,82.6l-1.3,0.1
				L32.5,80z"/>
			<path class="st2" d="M38,78.3l-1.5,0.1l0,0.9l1.5-0.1l0,0.9l-1.5,0.1l0,1l1.5-0.1l0,0.9l-2.6,0.2l0.2-4.7l2.5-0.2L38,78.3z"/>
			<path class="st2" d="M41.7,81.6c-0.1,0.1-0.5,0.3-1.1,0.3c-0.9,0.1-1.4-0.3-1.7-0.5c-0.3-0.3-0.7-0.7-0.8-1.5
				c-0.1-0.8,0.2-1.5,0.6-1.9c0.4-0.4,0.9-0.8,1.8-0.9c0.7-0.1,1.2,0.1,1.3,0.2l0,1.1c-0.2-0.2-0.6-0.4-1.2-0.4
				c-0.4,0-0.8,0.2-1.1,0.5c-0.3,0.3-0.4,0.8-0.3,1.1c0,0.4,0.2,0.7,0.4,0.9c0.2,0.2,0.6,0.3,1,0.3c0.5,0,0.8-0.3,1-0.5L41.7,81.6z"
				/>
			<path class="st2" d="M43.2,77l-0.1,2.5c0,0.1,0,0.2,0,0.4c0,0.2,0.1,0.4,0.2,0.6c0.1,0.1,0.3,0.2,0.6,0.2c0.3,0,0.5-0.2,0.7-0.3
				c0.2-0.2,0.2-0.6,0.2-0.9l0.1-2.6l1.1-0.1l-0.1,2.7c0,0.6,0,1.1-0.4,1.6c-0.4,0.5-1.1,0.6-1.5,0.6c-0.5,0-1,0-1.5-0.4
				c-0.3-0.3-0.5-0.6-0.5-1c0-0.2,0-0.5,0-0.7l0.1-2.5L43.2,77z"/>
			<path class="st2" d="M48,77.5l-0.2,3.7l-1.1,0.1l0.2-3.7l-1,0.1l0-0.9l3.1-0.3l0,0.9L48,77.5z"/>
			<path class="st2" d="M50.2,76.4L50,81.1l-1.1,0.1l0.2-4.7L50.2,76.4z"/>
			<path class="st2" d="M51.3,76.3l1,2.9l1.3-3.1l1.2-0.1l-2.1,4.8l-0.7,0.1l-1.8-4.5L51.3,76.3z"/>
			<path class="st2" d="M57.3,76.8l-1.5,0.1l0,0.9l1.5-0.1l0,0.9l-1.5,0.1l0,1l1.5-0.1l0,0.9l-2.6,0.2l0.2-4.7l2.5-0.2L57.3,76.8z"
				/>
			<path class="st2" d="M58.8,75.7l1.5-0.1c0.3,0,0.7,0,1,0.2c0.2,0.1,0.3,0.4,0.4,0.8c0,0.3,0,0.5-0.2,0.7
				c-0.1,0.2-0.3,0.3-0.5,0.4c0.2,0,0.4,0.1,0.5,0.2c0.2,0.2,0.3,0.4,0.4,0.7c0,0.5-0.1,0.8-0.3,1c-0.3,0.4-0.9,0.5-1.4,0.5
				l-1.7,0.1L58.8,75.7z M59.7,79.5l0.4,0c0.2,0,0.5-0.1,0.7-0.2c0.1-0.1,0.2-0.2,0.1-0.5c0-0.1,0-0.2-0.2-0.3
				c-0.2-0.1-0.5-0.1-0.6-0.1l-0.4,0L59.7,79.5z M59.8,77.5l0.2,0c0.2,0,0.4-0.1,0.6-0.2c0.1-0.1,0.1-0.3,0.1-0.4
				c0-0.2-0.1-0.3-0.2-0.3c-0.1-0.1-0.3-0.1-0.5-0.1l-0.2,0L59.8,77.5z"/>
			<path class="st2" d="M63.4,75.4l-0.1,2.5c0,0.1,0,0.2,0,0.4c0,0.2,0.1,0.4,0.2,0.6c0.1,0.1,0.3,0.2,0.6,0.2
				c0.3,0,0.5-0.2,0.7-0.3c0.2-0.2,0.2-0.6,0.2-0.9l0.1-2.6l1.1-0.1l-0.1,2.7c0,0.6,0,1.1-0.4,1.6c-0.4,0.5-1.1,0.6-1.5,0.6
				c-0.5,0-1,0-1.5-0.4c-0.3-0.3-0.5-0.6-0.5-1c0-0.2,0-0.5,0-0.7l0.1-2.5L63.4,75.4z"/>
			<path class="st2" d="M69.2,75.8l-1.5,0.1l0,0.9l1.4-0.1l0,0.9l-1.4,0.1l-0.1,1.9l-1.1,0.1l0.2-4.7l2.6-0.2L69.2,75.8z"/>
			<path class="st2" d="M72,75.6l-1.5,0.1l0,0.9l1.4-0.1l0,0.9l-1.4,0.1l-0.1,1.9l-1.1,0.1l0.2-4.7l2.6-0.2L72,75.6z"/>
			<path class="st2" d="M74.8,75.3l-1.5,0.1l0,0.9l1.5-0.1l0,0.9l-1.5,0.1l0,1l1.5-0.1l0,0.9l-2.6,0.2l0.2-4.7l2.5-0.2L74.8,75.3z"
				/>
			<path class="st2" d="M76.7,75.2l-0.2,3.7L75.5,79l0.2-3.7l-1,0.1l0-0.9l3.1-0.3l0,0.9L76.7,75.2z"/>
		</g>
	</g>
</g>
<path class="st2" d="M40.7,53.8c-0.3,0.1-1.4,0.1-1.6,0.1l0.1,1.5l1.8,0c0.1-0.2,0.1-1,0.2-1.6H40.7z"/>
</svg>
